<mxfile host="app.diagrams.net" modified="2023-11-26T23:56:33.451Z" agent="Mozilla/5.0 (Windows NT 10.0; Win64; x64) AppleWebKit/537.36 (KHTML, like Gecko) Chrome/118.0.0.0 Safari/537.36 OPR/104.0.0.0" etag="NRLTmnOGo_a35XW_87IO" version="22.1.4" type="github">
  <diagram name="Page-1" id="a7pNmjv5opjbrcWNpLc7">
    <mxGraphModel dx="1462" dy="612" grid="0" gridSize="10" guides="1" tooltips="1" connect="1" arrows="1" fold="1" page="0" pageScale="1" pageWidth="850" pageHeight="1100" math="0" shadow="0">
      <root>
        <mxCell id="0" />
        <mxCell id="1" parent="0" />
        <mxCell id="UQmTX6FbrtQx3RFLPW82-1" value="Taller" style="shape=table;startSize=30;container=1;collapsible=1;childLayout=tableLayout;fixedRows=1;rowLines=0;fontStyle=1;align=center;resizeLast=1;html=1;" vertex="1" parent="1">
          <mxGeometry x="108" y="232" width="180" height="150" as="geometry" />
        </mxCell>
        <mxCell id="UQmTX6FbrtQx3RFLPW82-2" value="" style="shape=tableRow;horizontal=0;startSize=0;swimlaneHead=0;swimlaneBody=0;fillColor=none;collapsible=0;dropTarget=0;points=[[0,0.5],[1,0.5]];portConstraint=eastwest;top=0;left=0;right=0;bottom=1;" vertex="1" parent="UQmTX6FbrtQx3RFLPW82-1">
          <mxGeometry y="30" width="180" height="30" as="geometry" />
        </mxCell>
        <mxCell id="UQmTX6FbrtQx3RFLPW82-3" value="PK" style="shape=partialRectangle;connectable=0;fillColor=none;top=0;left=0;bottom=0;right=0;fontStyle=1;overflow=hidden;whiteSpace=wrap;html=1;" vertex="1" parent="UQmTX6FbrtQx3RFLPW82-2">
          <mxGeometry width="30" height="30" as="geometry">
            <mxRectangle width="30" height="30" as="alternateBounds" />
          </mxGeometry>
        </mxCell>
        <mxCell id="UQmTX6FbrtQx3RFLPW82-4" value="IdTaller" style="shape=partialRectangle;connectable=0;fillColor=none;top=0;left=0;bottom=0;right=0;align=left;spacingLeft=6;fontStyle=5;overflow=hidden;whiteSpace=wrap;html=1;" vertex="1" parent="UQmTX6FbrtQx3RFLPW82-2">
          <mxGeometry x="30" width="150" height="30" as="geometry">
            <mxRectangle width="150" height="30" as="alternateBounds" />
          </mxGeometry>
        </mxCell>
        <mxCell id="UQmTX6FbrtQx3RFLPW82-5" value="" style="shape=tableRow;horizontal=0;startSize=0;swimlaneHead=0;swimlaneBody=0;fillColor=none;collapsible=0;dropTarget=0;points=[[0,0.5],[1,0.5]];portConstraint=eastwest;top=0;left=0;right=0;bottom=0;" vertex="1" parent="UQmTX6FbrtQx3RFLPW82-1">
          <mxGeometry y="60" width="180" height="30" as="geometry" />
        </mxCell>
        <mxCell id="UQmTX6FbrtQx3RFLPW82-6" value="fk,nn" style="shape=partialRectangle;connectable=0;fillColor=none;top=0;left=0;bottom=0;right=0;editable=1;overflow=hidden;whiteSpace=wrap;html=1;" vertex="1" parent="UQmTX6FbrtQx3RFLPW82-5">
          <mxGeometry width="30" height="30" as="geometry">
            <mxRectangle width="30" height="30" as="alternateBounds" />
          </mxGeometry>
        </mxCell>
        <mxCell id="UQmTX6FbrtQx3RFLPW82-7" value="IdDocente" style="shape=partialRectangle;connectable=0;fillColor=none;top=0;left=0;bottom=0;right=0;align=left;spacingLeft=6;overflow=hidden;whiteSpace=wrap;html=1;" vertex="1" parent="UQmTX6FbrtQx3RFLPW82-5">
          <mxGeometry x="30" width="150" height="30" as="geometry">
            <mxRectangle width="150" height="30" as="alternateBounds" />
          </mxGeometry>
        </mxCell>
        <mxCell id="UQmTX6FbrtQx3RFLPW82-93" value="" style="shape=tableRow;horizontal=0;startSize=0;swimlaneHead=0;swimlaneBody=0;fillColor=none;collapsible=0;dropTarget=0;points=[[0,0.5],[1,0.5]];portConstraint=eastwest;top=0;left=0;right=0;bottom=0;" vertex="1" parent="UQmTX6FbrtQx3RFLPW82-1">
          <mxGeometry y="90" width="180" height="30" as="geometry" />
        </mxCell>
        <mxCell id="UQmTX6FbrtQx3RFLPW82-94" value="nn" style="shape=partialRectangle;connectable=0;fillColor=none;top=0;left=0;bottom=0;right=0;editable=1;overflow=hidden;whiteSpace=wrap;html=1;" vertex="1" parent="UQmTX6FbrtQx3RFLPW82-93">
          <mxGeometry width="30" height="30" as="geometry">
            <mxRectangle width="30" height="30" as="alternateBounds" />
          </mxGeometry>
        </mxCell>
        <mxCell id="UQmTX6FbrtQx3RFLPW82-95" value="Nombre" style="shape=partialRectangle;connectable=0;fillColor=none;top=0;left=0;bottom=0;right=0;align=left;spacingLeft=6;overflow=hidden;whiteSpace=wrap;html=1;" vertex="1" parent="UQmTX6FbrtQx3RFLPW82-93">
          <mxGeometry x="30" width="150" height="30" as="geometry">
            <mxRectangle width="150" height="30" as="alternateBounds" />
          </mxGeometry>
        </mxCell>
        <mxCell id="UQmTX6FbrtQx3RFLPW82-8" value="" style="shape=tableRow;horizontal=0;startSize=0;swimlaneHead=0;swimlaneBody=0;fillColor=none;collapsible=0;dropTarget=0;points=[[0,0.5],[1,0.5]];portConstraint=eastwest;top=0;left=0;right=0;bottom=0;" vertex="1" parent="UQmTX6FbrtQx3RFLPW82-1">
          <mxGeometry y="120" width="180" height="30" as="geometry" />
        </mxCell>
        <mxCell id="UQmTX6FbrtQx3RFLPW82-9" value="nn" style="shape=partialRectangle;connectable=0;fillColor=none;top=0;left=0;bottom=0;right=0;editable=1;overflow=hidden;whiteSpace=wrap;html=1;" vertex="1" parent="UQmTX6FbrtQx3RFLPW82-8">
          <mxGeometry width="30" height="30" as="geometry">
            <mxRectangle width="30" height="30" as="alternateBounds" />
          </mxGeometry>
        </mxCell>
        <mxCell id="UQmTX6FbrtQx3RFLPW82-10" value="Duracion" style="shape=partialRectangle;connectable=0;fillColor=none;top=0;left=0;bottom=0;right=0;align=left;spacingLeft=6;overflow=hidden;whiteSpace=wrap;html=1;" vertex="1" parent="UQmTX6FbrtQx3RFLPW82-8">
          <mxGeometry x="30" width="150" height="30" as="geometry">
            <mxRectangle width="150" height="30" as="alternateBounds" />
          </mxGeometry>
        </mxCell>
        <mxCell id="UQmTX6FbrtQx3RFLPW82-14" value="Escuela" style="shape=table;startSize=30;container=1;collapsible=1;childLayout=tableLayout;fixedRows=1;rowLines=0;fontStyle=1;align=center;resizeLast=1;html=1;" vertex="1" parent="1">
          <mxGeometry x="741" y="221" width="180" height="150" as="geometry" />
        </mxCell>
        <mxCell id="UQmTX6FbrtQx3RFLPW82-15" value="" style="shape=tableRow;horizontal=0;startSize=0;swimlaneHead=0;swimlaneBody=0;fillColor=none;collapsible=0;dropTarget=0;points=[[0,0.5],[1,0.5]];portConstraint=eastwest;top=0;left=0;right=0;bottom=1;" vertex="1" parent="UQmTX6FbrtQx3RFLPW82-14">
          <mxGeometry y="30" width="180" height="30" as="geometry" />
        </mxCell>
        <mxCell id="UQmTX6FbrtQx3RFLPW82-16" value="PK" style="shape=partialRectangle;connectable=0;fillColor=none;top=0;left=0;bottom=0;right=0;fontStyle=1;overflow=hidden;whiteSpace=wrap;html=1;" vertex="1" parent="UQmTX6FbrtQx3RFLPW82-15">
          <mxGeometry width="30" height="30" as="geometry">
            <mxRectangle width="30" height="30" as="alternateBounds" />
          </mxGeometry>
        </mxCell>
        <mxCell id="UQmTX6FbrtQx3RFLPW82-17" value="IdEscuela" style="shape=partialRectangle;connectable=0;fillColor=none;top=0;left=0;bottom=0;right=0;align=left;spacingLeft=6;fontStyle=5;overflow=hidden;whiteSpace=wrap;html=1;" vertex="1" parent="UQmTX6FbrtQx3RFLPW82-15">
          <mxGeometry x="30" width="150" height="30" as="geometry">
            <mxRectangle width="150" height="30" as="alternateBounds" />
          </mxGeometry>
        </mxCell>
        <mxCell id="UQmTX6FbrtQx3RFLPW82-18" value="" style="shape=tableRow;horizontal=0;startSize=0;swimlaneHead=0;swimlaneBody=0;fillColor=none;collapsible=0;dropTarget=0;points=[[0,0.5],[1,0.5]];portConstraint=eastwest;top=0;left=0;right=0;bottom=0;" vertex="1" parent="UQmTX6FbrtQx3RFLPW82-14">
          <mxGeometry y="60" width="180" height="30" as="geometry" />
        </mxCell>
        <mxCell id="UQmTX6FbrtQx3RFLPW82-19" value="nn" style="shape=partialRectangle;connectable=0;fillColor=none;top=0;left=0;bottom=0;right=0;editable=1;overflow=hidden;whiteSpace=wrap;html=1;" vertex="1" parent="UQmTX6FbrtQx3RFLPW82-18">
          <mxGeometry width="30" height="30" as="geometry">
            <mxRectangle width="30" height="30" as="alternateBounds" />
          </mxGeometry>
        </mxCell>
        <mxCell id="UQmTX6FbrtQx3RFLPW82-20" value="Numero" style="shape=partialRectangle;connectable=0;fillColor=none;top=0;left=0;bottom=0;right=0;align=left;spacingLeft=6;overflow=hidden;whiteSpace=wrap;html=1;" vertex="1" parent="UQmTX6FbrtQx3RFLPW82-18">
          <mxGeometry x="30" width="150" height="30" as="geometry">
            <mxRectangle width="150" height="30" as="alternateBounds" />
          </mxGeometry>
        </mxCell>
        <mxCell id="UQmTX6FbrtQx3RFLPW82-21" value="" style="shape=tableRow;horizontal=0;startSize=0;swimlaneHead=0;swimlaneBody=0;fillColor=none;collapsible=0;dropTarget=0;points=[[0,0.5],[1,0.5]];portConstraint=eastwest;top=0;left=0;right=0;bottom=0;" vertex="1" parent="UQmTX6FbrtQx3RFLPW82-14">
          <mxGeometry y="90" width="180" height="30" as="geometry" />
        </mxCell>
        <mxCell id="UQmTX6FbrtQx3RFLPW82-22" value="nn" style="shape=partialRectangle;connectable=0;fillColor=none;top=0;left=0;bottom=0;right=0;editable=1;overflow=hidden;whiteSpace=wrap;html=1;" vertex="1" parent="UQmTX6FbrtQx3RFLPW82-21">
          <mxGeometry width="30" height="30" as="geometry">
            <mxRectangle width="30" height="30" as="alternateBounds" />
          </mxGeometry>
        </mxCell>
        <mxCell id="UQmTX6FbrtQx3RFLPW82-23" value="Localidad" style="shape=partialRectangle;connectable=0;fillColor=none;top=0;left=0;bottom=0;right=0;align=left;spacingLeft=6;overflow=hidden;whiteSpace=wrap;html=1;" vertex="1" parent="UQmTX6FbrtQx3RFLPW82-21">
          <mxGeometry x="30" width="150" height="30" as="geometry">
            <mxRectangle width="150" height="30" as="alternateBounds" />
          </mxGeometry>
        </mxCell>
        <mxCell id="UQmTX6FbrtQx3RFLPW82-24" value="" style="shape=tableRow;horizontal=0;startSize=0;swimlaneHead=0;swimlaneBody=0;fillColor=none;collapsible=0;dropTarget=0;points=[[0,0.5],[1,0.5]];portConstraint=eastwest;top=0;left=0;right=0;bottom=0;" vertex="1" parent="UQmTX6FbrtQx3RFLPW82-14">
          <mxGeometry y="120" width="180" height="30" as="geometry" />
        </mxCell>
        <mxCell id="UQmTX6FbrtQx3RFLPW82-25" value="nn" style="shape=partialRectangle;connectable=0;fillColor=none;top=0;left=0;bottom=0;right=0;editable=1;overflow=hidden;whiteSpace=wrap;html=1;" vertex="1" parent="UQmTX6FbrtQx3RFLPW82-24">
          <mxGeometry width="30" height="30" as="geometry">
            <mxRectangle width="30" height="30" as="alternateBounds" />
          </mxGeometry>
        </mxCell>
        <mxCell id="UQmTX6FbrtQx3RFLPW82-26" value="Domicilio" style="shape=partialRectangle;connectable=0;fillColor=none;top=0;left=0;bottom=0;right=0;align=left;spacingLeft=6;overflow=hidden;whiteSpace=wrap;html=1;" vertex="1" parent="UQmTX6FbrtQx3RFLPW82-24">
          <mxGeometry x="30" width="150" height="30" as="geometry">
            <mxRectangle width="150" height="30" as="alternateBounds" />
          </mxGeometry>
        </mxCell>
        <mxCell id="UQmTX6FbrtQx3RFLPW82-27" value="TallerEscuela" style="shape=table;startSize=30;container=1;collapsible=1;childLayout=tableLayout;fixedRows=1;rowLines=0;fontStyle=1;align=center;resizeLast=1;html=1;whiteSpace=wrap;" vertex="1" parent="1">
          <mxGeometry x="428" y="227" width="180" height="120" as="geometry" />
        </mxCell>
        <mxCell id="UQmTX6FbrtQx3RFLPW82-28" value="" style="shape=tableRow;horizontal=0;startSize=0;swimlaneHead=0;swimlaneBody=0;fillColor=none;collapsible=0;dropTarget=0;points=[[0,0.5],[1,0.5]];portConstraint=eastwest;top=0;left=0;right=0;bottom=0;html=1;" vertex="1" parent="UQmTX6FbrtQx3RFLPW82-27">
          <mxGeometry y="30" width="180" height="30" as="geometry" />
        </mxCell>
        <mxCell id="UQmTX6FbrtQx3RFLPW82-29" value="PK,FK1" style="shape=partialRectangle;connectable=0;fillColor=none;top=0;left=0;bottom=0;right=0;fontStyle=1;overflow=hidden;html=1;whiteSpace=wrap;" vertex="1" parent="UQmTX6FbrtQx3RFLPW82-28">
          <mxGeometry width="60" height="30" as="geometry">
            <mxRectangle width="60" height="30" as="alternateBounds" />
          </mxGeometry>
        </mxCell>
        <mxCell id="UQmTX6FbrtQx3RFLPW82-30" value="IdTaller" style="shape=partialRectangle;connectable=0;fillColor=none;top=0;left=0;bottom=0;right=0;align=left;spacingLeft=6;fontStyle=5;overflow=hidden;html=1;whiteSpace=wrap;" vertex="1" parent="UQmTX6FbrtQx3RFLPW82-28">
          <mxGeometry x="60" width="120" height="30" as="geometry">
            <mxRectangle width="120" height="30" as="alternateBounds" />
          </mxGeometry>
        </mxCell>
        <mxCell id="UQmTX6FbrtQx3RFLPW82-31" value="" style="shape=tableRow;horizontal=0;startSize=0;swimlaneHead=0;swimlaneBody=0;fillColor=none;collapsible=0;dropTarget=0;points=[[0,0.5],[1,0.5]];portConstraint=eastwest;top=0;left=0;right=0;bottom=1;html=1;" vertex="1" parent="UQmTX6FbrtQx3RFLPW82-27">
          <mxGeometry y="60" width="180" height="30" as="geometry" />
        </mxCell>
        <mxCell id="UQmTX6FbrtQx3RFLPW82-32" value="PK,FK2" style="shape=partialRectangle;connectable=0;fillColor=none;top=0;left=0;bottom=0;right=0;fontStyle=1;overflow=hidden;html=1;whiteSpace=wrap;" vertex="1" parent="UQmTX6FbrtQx3RFLPW82-31">
          <mxGeometry width="60" height="30" as="geometry">
            <mxRectangle width="60" height="30" as="alternateBounds" />
          </mxGeometry>
        </mxCell>
        <mxCell id="UQmTX6FbrtQx3RFLPW82-33" value="IdEscuela" style="shape=partialRectangle;connectable=0;fillColor=none;top=0;left=0;bottom=0;right=0;align=left;spacingLeft=6;fontStyle=5;overflow=hidden;html=1;whiteSpace=wrap;" vertex="1" parent="UQmTX6FbrtQx3RFLPW82-31">
          <mxGeometry x="60" width="120" height="30" as="geometry">
            <mxRectangle width="120" height="30" as="alternateBounds" />
          </mxGeometry>
        </mxCell>
        <mxCell id="UQmTX6FbrtQx3RFLPW82-89" value="" style="shape=tableRow;horizontal=0;startSize=0;swimlaneHead=0;swimlaneBody=0;fillColor=none;collapsible=0;dropTarget=0;points=[[0,0.5],[1,0.5]];portConstraint=eastwest;top=0;left=0;right=0;bottom=0;html=1;" vertex="1" parent="UQmTX6FbrtQx3RFLPW82-27">
          <mxGeometry y="90" width="180" height="30" as="geometry" />
        </mxCell>
        <mxCell id="UQmTX6FbrtQx3RFLPW82-90" value="nn" style="shape=partialRectangle;connectable=0;fillColor=none;top=0;left=0;bottom=0;right=0;editable=1;overflow=hidden;html=1;whiteSpace=wrap;" vertex="1" parent="UQmTX6FbrtQx3RFLPW82-89">
          <mxGeometry width="60" height="30" as="geometry">
            <mxRectangle width="60" height="30" as="alternateBounds" />
          </mxGeometry>
        </mxCell>
        <mxCell id="UQmTX6FbrtQx3RFLPW82-91" value="Fecha" style="shape=partialRectangle;connectable=0;fillColor=none;top=0;left=0;bottom=0;right=0;align=left;spacingLeft=6;overflow=hidden;html=1;whiteSpace=wrap;" vertex="1" parent="UQmTX6FbrtQx3RFLPW82-89">
          <mxGeometry x="60" width="120" height="30" as="geometry">
            <mxRectangle width="120" height="30" as="alternateBounds" />
          </mxGeometry>
        </mxCell>
        <mxCell id="UQmTX6FbrtQx3RFLPW82-40" value="" style="edgeStyle=entityRelationEdgeStyle;fontSize=12;html=1;endArrow=ERzeroToMany;startArrow=ERmandOne;rounded=0;" edge="1" parent="1" source="UQmTX6FbrtQx3RFLPW82-2" target="UQmTX6FbrtQx3RFLPW82-28">
          <mxGeometry width="100" height="100" relative="1" as="geometry">
            <mxPoint x="371" y="288" as="sourcePoint" />
            <mxPoint x="471" y="188" as="targetPoint" />
          </mxGeometry>
        </mxCell>
        <mxCell id="UQmTX6FbrtQx3RFLPW82-41" value="" style="edgeStyle=entityRelationEdgeStyle;fontSize=12;html=1;endArrow=ERoneToMany;startArrow=ERmandOne;rounded=0;" edge="1" parent="1" source="UQmTX6FbrtQx3RFLPW82-15" target="UQmTX6FbrtQx3RFLPW82-31">
          <mxGeometry width="100" height="100" relative="1" as="geometry">
            <mxPoint x="605" y="326" as="sourcePoint" />
            <mxPoint x="705" y="226" as="targetPoint" />
          </mxGeometry>
        </mxCell>
        <mxCell id="UQmTX6FbrtQx3RFLPW82-42" value="Recursos" style="shape=table;startSize=30;container=1;collapsible=1;childLayout=tableLayout;fixedRows=1;rowLines=0;fontStyle=1;align=center;resizeLast=1;html=1;" vertex="1" parent="1">
          <mxGeometry x="-173" y="223" width="180" height="120" as="geometry" />
        </mxCell>
        <mxCell id="UQmTX6FbrtQx3RFLPW82-43" value="" style="shape=tableRow;horizontal=0;startSize=0;swimlaneHead=0;swimlaneBody=0;fillColor=none;collapsible=0;dropTarget=0;points=[[0,0.5],[1,0.5]];portConstraint=eastwest;top=0;left=0;right=0;bottom=1;" vertex="1" parent="UQmTX6FbrtQx3RFLPW82-42">
          <mxGeometry y="30" width="180" height="30" as="geometry" />
        </mxCell>
        <mxCell id="UQmTX6FbrtQx3RFLPW82-44" value="PK" style="shape=partialRectangle;connectable=0;fillColor=none;top=0;left=0;bottom=0;right=0;fontStyle=1;overflow=hidden;whiteSpace=wrap;html=1;" vertex="1" parent="UQmTX6FbrtQx3RFLPW82-43">
          <mxGeometry width="48.350006103515625" height="30" as="geometry">
            <mxRectangle width="48.350006103515625" height="30" as="alternateBounds" />
          </mxGeometry>
        </mxCell>
        <mxCell id="UQmTX6FbrtQx3RFLPW82-45" value="IdRecursos" style="shape=partialRectangle;connectable=0;fillColor=none;top=0;left=0;bottom=0;right=0;align=left;spacingLeft=6;fontStyle=5;overflow=hidden;whiteSpace=wrap;html=1;" vertex="1" parent="UQmTX6FbrtQx3RFLPW82-43">
          <mxGeometry x="48.350006103515625" width="131.64999389648438" height="30" as="geometry">
            <mxRectangle width="131.64999389648438" height="30" as="alternateBounds" />
          </mxGeometry>
        </mxCell>
        <mxCell id="UQmTX6FbrtQx3RFLPW82-46" value="" style="shape=tableRow;horizontal=0;startSize=0;swimlaneHead=0;swimlaneBody=0;fillColor=none;collapsible=0;dropTarget=0;points=[[0,0.5],[1,0.5]];portConstraint=eastwest;top=0;left=0;right=0;bottom=0;" vertex="1" parent="UQmTX6FbrtQx3RFLPW82-42">
          <mxGeometry y="60" width="180" height="30" as="geometry" />
        </mxCell>
        <mxCell id="UQmTX6FbrtQx3RFLPW82-47" value="nn" style="shape=partialRectangle;connectable=0;fillColor=none;top=0;left=0;bottom=0;right=0;editable=1;overflow=hidden;whiteSpace=wrap;html=1;" vertex="1" parent="UQmTX6FbrtQx3RFLPW82-46">
          <mxGeometry width="48.350006103515625" height="30" as="geometry">
            <mxRectangle width="48.350006103515625" height="30" as="alternateBounds" />
          </mxGeometry>
        </mxCell>
        <mxCell id="UQmTX6FbrtQx3RFLPW82-48" value="Nombre" style="shape=partialRectangle;connectable=0;fillColor=none;top=0;left=0;bottom=0;right=0;align=left;spacingLeft=6;overflow=hidden;whiteSpace=wrap;html=1;" vertex="1" parent="UQmTX6FbrtQx3RFLPW82-46">
          <mxGeometry x="48.350006103515625" width="131.64999389648438" height="30" as="geometry">
            <mxRectangle width="131.64999389648438" height="30" as="alternateBounds" />
          </mxGeometry>
        </mxCell>
        <mxCell id="UQmTX6FbrtQx3RFLPW82-49" value="" style="shape=tableRow;horizontal=0;startSize=0;swimlaneHead=0;swimlaneBody=0;fillColor=none;collapsible=0;dropTarget=0;points=[[0,0.5],[1,0.5]];portConstraint=eastwest;top=0;left=0;right=0;bottom=0;" vertex="1" parent="UQmTX6FbrtQx3RFLPW82-42">
          <mxGeometry y="90" width="180" height="30" as="geometry" />
        </mxCell>
        <mxCell id="UQmTX6FbrtQx3RFLPW82-50" value="fk" style="shape=partialRectangle;connectable=0;fillColor=none;top=0;left=0;bottom=0;right=0;editable=1;overflow=hidden;whiteSpace=wrap;html=1;" vertex="1" parent="UQmTX6FbrtQx3RFLPW82-49">
          <mxGeometry width="48.350006103515625" height="30" as="geometry">
            <mxRectangle width="48.350006103515625" height="30" as="alternateBounds" />
          </mxGeometry>
        </mxCell>
        <mxCell id="UQmTX6FbrtQx3RFLPW82-51" value="IdTaller" style="shape=partialRectangle;connectable=0;fillColor=none;top=0;left=0;bottom=0;right=0;align=left;spacingLeft=6;overflow=hidden;whiteSpace=wrap;html=1;" vertex="1" parent="UQmTX6FbrtQx3RFLPW82-49">
          <mxGeometry x="48.350006103515625" width="131.64999389648438" height="30" as="geometry">
            <mxRectangle width="131.64999389648438" height="30" as="alternateBounds" />
          </mxGeometry>
        </mxCell>
        <mxCell id="UQmTX6FbrtQx3RFLPW82-55" value="" style="edgeStyle=entityRelationEdgeStyle;fontSize=12;html=1;endArrow=ERoneToMany;startArrow=ERmandOne;rounded=0;" edge="1" parent="1" source="UQmTX6FbrtQx3RFLPW82-2" target="UQmTX6FbrtQx3RFLPW82-43">
          <mxGeometry width="100" height="100" relative="1" as="geometry">
            <mxPoint x="32" y="404" as="sourcePoint" />
            <mxPoint x="367" y="328" as="targetPoint" />
          </mxGeometry>
        </mxCell>
        <mxCell id="UQmTX6FbrtQx3RFLPW82-59" value="Orientacion" style="shape=table;startSize=30;container=1;collapsible=1;childLayout=tableLayout;fixedRows=1;rowLines=0;fontStyle=1;align=center;resizeLast=1;html=1;" vertex="1" parent="1">
          <mxGeometry x="1072" y="221" width="180" height="120" as="geometry" />
        </mxCell>
        <mxCell id="UQmTX6FbrtQx3RFLPW82-60" value="" style="shape=tableRow;horizontal=0;startSize=0;swimlaneHead=0;swimlaneBody=0;fillColor=none;collapsible=0;dropTarget=0;points=[[0,0.5],[1,0.5]];portConstraint=eastwest;top=0;left=0;right=0;bottom=1;" vertex="1" parent="UQmTX6FbrtQx3RFLPW82-59">
          <mxGeometry y="30" width="180" height="30" as="geometry" />
        </mxCell>
        <mxCell id="UQmTX6FbrtQx3RFLPW82-61" value="PK" style="shape=partialRectangle;connectable=0;fillColor=none;top=0;left=0;bottom=0;right=0;fontStyle=1;overflow=hidden;whiteSpace=wrap;html=1;" vertex="1" parent="UQmTX6FbrtQx3RFLPW82-60">
          <mxGeometry width="30" height="30" as="geometry">
            <mxRectangle width="30" height="30" as="alternateBounds" />
          </mxGeometry>
        </mxCell>
        <mxCell id="UQmTX6FbrtQx3RFLPW82-62" value="IdOrientacion" style="shape=partialRectangle;connectable=0;fillColor=none;top=0;left=0;bottom=0;right=0;align=left;spacingLeft=6;fontStyle=5;overflow=hidden;whiteSpace=wrap;html=1;" vertex="1" parent="UQmTX6FbrtQx3RFLPW82-60">
          <mxGeometry x="30" width="150" height="30" as="geometry">
            <mxRectangle width="150" height="30" as="alternateBounds" />
          </mxGeometry>
        </mxCell>
        <mxCell id="UQmTX6FbrtQx3RFLPW82-63" value="" style="shape=tableRow;horizontal=0;startSize=0;swimlaneHead=0;swimlaneBody=0;fillColor=none;collapsible=0;dropTarget=0;points=[[0,0.5],[1,0.5]];portConstraint=eastwest;top=0;left=0;right=0;bottom=0;" vertex="1" parent="UQmTX6FbrtQx3RFLPW82-59">
          <mxGeometry y="60" width="180" height="30" as="geometry" />
        </mxCell>
        <mxCell id="UQmTX6FbrtQx3RFLPW82-64" value="fk,nn" style="shape=partialRectangle;connectable=0;fillColor=none;top=0;left=0;bottom=0;right=0;editable=1;overflow=hidden;whiteSpace=wrap;html=1;" vertex="1" parent="UQmTX6FbrtQx3RFLPW82-63">
          <mxGeometry width="30" height="30" as="geometry">
            <mxRectangle width="30" height="30" as="alternateBounds" />
          </mxGeometry>
        </mxCell>
        <mxCell id="UQmTX6FbrtQx3RFLPW82-65" value="IdEscuela" style="shape=partialRectangle;connectable=0;fillColor=none;top=0;left=0;bottom=0;right=0;align=left;spacingLeft=6;overflow=hidden;whiteSpace=wrap;html=1;" vertex="1" parent="UQmTX6FbrtQx3RFLPW82-63">
          <mxGeometry x="30" width="150" height="30" as="geometry">
            <mxRectangle width="150" height="30" as="alternateBounds" />
          </mxGeometry>
        </mxCell>
        <mxCell id="UQmTX6FbrtQx3RFLPW82-66" value="" style="shape=tableRow;horizontal=0;startSize=0;swimlaneHead=0;swimlaneBody=0;fillColor=none;collapsible=0;dropTarget=0;points=[[0,0.5],[1,0.5]];portConstraint=eastwest;top=0;left=0;right=0;bottom=0;" vertex="1" parent="UQmTX6FbrtQx3RFLPW82-59">
          <mxGeometry y="90" width="180" height="30" as="geometry" />
        </mxCell>
        <mxCell id="UQmTX6FbrtQx3RFLPW82-67" value="nn" style="shape=partialRectangle;connectable=0;fillColor=none;top=0;left=0;bottom=0;right=0;editable=1;overflow=hidden;whiteSpace=wrap;html=1;" vertex="1" parent="UQmTX6FbrtQx3RFLPW82-66">
          <mxGeometry width="30" height="30" as="geometry">
            <mxRectangle width="30" height="30" as="alternateBounds" />
          </mxGeometry>
        </mxCell>
        <mxCell id="UQmTX6FbrtQx3RFLPW82-68" value="Nombre" style="shape=partialRectangle;connectable=0;fillColor=none;top=0;left=0;bottom=0;right=0;align=left;spacingLeft=6;overflow=hidden;whiteSpace=wrap;html=1;" vertex="1" parent="UQmTX6FbrtQx3RFLPW82-66">
          <mxGeometry x="30" width="150" height="30" as="geometry">
            <mxRectangle width="150" height="30" as="alternateBounds" />
          </mxGeometry>
        </mxCell>
        <mxCell id="UQmTX6FbrtQx3RFLPW82-72" value="" style="edgeStyle=entityRelationEdgeStyle;fontSize=12;html=1;endArrow=ERzeroToMany;startArrow=ERmandOne;rounded=0;" edge="1" parent="1" source="UQmTX6FbrtQx3RFLPW82-15" target="UQmTX6FbrtQx3RFLPW82-63">
          <mxGeometry width="100" height="100" relative="1" as="geometry">
            <mxPoint x="989" y="346" as="sourcePoint" />
            <mxPoint x="1089" y="246" as="targetPoint" />
          </mxGeometry>
        </mxCell>
        <mxCell id="UQmTX6FbrtQx3RFLPW82-73" value="Docente" style="shape=table;startSize=30;container=1;collapsible=1;childLayout=tableLayout;fixedRows=1;rowLines=0;fontStyle=1;align=center;resizeLast=1;html=1;" vertex="1" parent="1">
          <mxGeometry x="428" y="430" width="180" height="210" as="geometry" />
        </mxCell>
        <mxCell id="UQmTX6FbrtQx3RFLPW82-74" value="" style="shape=tableRow;horizontal=0;startSize=0;swimlaneHead=0;swimlaneBody=0;fillColor=none;collapsible=0;dropTarget=0;points=[[0,0.5],[1,0.5]];portConstraint=eastwest;top=0;left=0;right=0;bottom=1;" vertex="1" parent="UQmTX6FbrtQx3RFLPW82-73">
          <mxGeometry y="30" width="180" height="30" as="geometry" />
        </mxCell>
        <mxCell id="UQmTX6FbrtQx3RFLPW82-75" value="PK" style="shape=partialRectangle;connectable=0;fillColor=none;top=0;left=0;bottom=0;right=0;fontStyle=1;overflow=hidden;whiteSpace=wrap;html=1;" vertex="1" parent="UQmTX6FbrtQx3RFLPW82-74">
          <mxGeometry width="35.42107833059214" height="30" as="geometry">
            <mxRectangle width="35.42107833059214" height="30" as="alternateBounds" />
          </mxGeometry>
        </mxCell>
        <mxCell id="UQmTX6FbrtQx3RFLPW82-76" value="IdDocente" style="shape=partialRectangle;connectable=0;fillColor=none;top=0;left=0;bottom=0;right=0;align=left;spacingLeft=6;fontStyle=5;overflow=hidden;whiteSpace=wrap;html=1;" vertex="1" parent="UQmTX6FbrtQx3RFLPW82-74">
          <mxGeometry x="35.42107833059214" width="144.57892166940786" height="30" as="geometry">
            <mxRectangle width="144.57892166940786" height="30" as="alternateBounds" />
          </mxGeometry>
        </mxCell>
        <mxCell id="UQmTX6FbrtQx3RFLPW82-77" value="" style="shape=tableRow;horizontal=0;startSize=0;swimlaneHead=0;swimlaneBody=0;fillColor=none;collapsible=0;dropTarget=0;points=[[0,0.5],[1,0.5]];portConstraint=eastwest;top=0;left=0;right=0;bottom=0;" vertex="1" parent="UQmTX6FbrtQx3RFLPW82-73">
          <mxGeometry y="60" width="180" height="30" as="geometry" />
        </mxCell>
        <mxCell id="UQmTX6FbrtQx3RFLPW82-78" value="fk, nn" style="shape=partialRectangle;connectable=0;fillColor=none;top=0;left=0;bottom=0;right=0;editable=1;overflow=hidden;whiteSpace=wrap;html=1;" vertex="1" parent="UQmTX6FbrtQx3RFLPW82-77">
          <mxGeometry width="35.42107833059214" height="30" as="geometry">
            <mxRectangle width="35.42107833059214" height="30" as="alternateBounds" />
          </mxGeometry>
        </mxCell>
        <mxCell id="UQmTX6FbrtQx3RFLPW82-79" value="IdServidor" style="shape=partialRectangle;connectable=0;fillColor=none;top=0;left=0;bottom=0;right=0;align=left;spacingLeft=6;overflow=hidden;whiteSpace=wrap;html=1;" vertex="1" parent="UQmTX6FbrtQx3RFLPW82-77">
          <mxGeometry x="35.42107833059214" width="144.57892166940786" height="30" as="geometry">
            <mxRectangle width="144.57892166940786" height="30" as="alternateBounds" />
          </mxGeometry>
        </mxCell>
        <mxCell id="UQmTX6FbrtQx3RFLPW82-112" value="" style="shape=tableRow;horizontal=0;startSize=0;swimlaneHead=0;swimlaneBody=0;fillColor=none;collapsible=0;dropTarget=0;points=[[0,0.5],[1,0.5]];portConstraint=eastwest;top=0;left=0;right=0;bottom=0;" vertex="1" parent="UQmTX6FbrtQx3RFLPW82-73">
          <mxGeometry y="90" width="180" height="30" as="geometry" />
        </mxCell>
        <mxCell id="UQmTX6FbrtQx3RFLPW82-113" value="uk, nn" style="shape=partialRectangle;connectable=0;fillColor=none;top=0;left=0;bottom=0;right=0;editable=1;overflow=hidden;whiteSpace=wrap;html=1;" vertex="1" parent="UQmTX6FbrtQx3RFLPW82-112">
          <mxGeometry width="35.42107833059214" height="30" as="geometry">
            <mxRectangle width="35.42107833059214" height="30" as="alternateBounds" />
          </mxGeometry>
        </mxCell>
        <mxCell id="UQmTX6FbrtQx3RFLPW82-114" value="DNI" style="shape=partialRectangle;connectable=0;fillColor=none;top=0;left=0;bottom=0;right=0;align=left;spacingLeft=6;overflow=hidden;whiteSpace=wrap;html=1;" vertex="1" parent="UQmTX6FbrtQx3RFLPW82-112">
          <mxGeometry x="35.42107833059214" width="144.57892166940786" height="30" as="geometry">
            <mxRectangle width="144.57892166940786" height="30" as="alternateBounds" />
          </mxGeometry>
        </mxCell>
        <mxCell id="UQmTX6FbrtQx3RFLPW82-80" value="" style="shape=tableRow;horizontal=0;startSize=0;swimlaneHead=0;swimlaneBody=0;fillColor=none;collapsible=0;dropTarget=0;points=[[0,0.5],[1,0.5]];portConstraint=eastwest;top=0;left=0;right=0;bottom=0;" vertex="1" parent="UQmTX6FbrtQx3RFLPW82-73">
          <mxGeometry y="120" width="180" height="30" as="geometry" />
        </mxCell>
        <mxCell id="UQmTX6FbrtQx3RFLPW82-81" value="nn" style="shape=partialRectangle;connectable=0;fillColor=none;top=0;left=0;bottom=0;right=0;editable=1;overflow=hidden;whiteSpace=wrap;html=1;" vertex="1" parent="UQmTX6FbrtQx3RFLPW82-80">
          <mxGeometry width="35.42107833059214" height="30" as="geometry">
            <mxRectangle width="35.42107833059214" height="30" as="alternateBounds" />
          </mxGeometry>
        </mxCell>
        <mxCell id="UQmTX6FbrtQx3RFLPW82-82" value="Nombre" style="shape=partialRectangle;connectable=0;fillColor=none;top=0;left=0;bottom=0;right=0;align=left;spacingLeft=6;overflow=hidden;whiteSpace=wrap;html=1;" vertex="1" parent="UQmTX6FbrtQx3RFLPW82-80">
          <mxGeometry x="35.42107833059214" width="144.57892166940786" height="30" as="geometry">
            <mxRectangle width="144.57892166940786" height="30" as="alternateBounds" />
          </mxGeometry>
        </mxCell>
        <mxCell id="UQmTX6FbrtQx3RFLPW82-83" value="" style="shape=tableRow;horizontal=0;startSize=0;swimlaneHead=0;swimlaneBody=0;fillColor=none;collapsible=0;dropTarget=0;points=[[0,0.5],[1,0.5]];portConstraint=eastwest;top=0;left=0;right=0;bottom=0;" vertex="1" parent="UQmTX6FbrtQx3RFLPW82-73">
          <mxGeometry y="150" width="180" height="30" as="geometry" />
        </mxCell>
        <mxCell id="UQmTX6FbrtQx3RFLPW82-84" value="nn" style="shape=partialRectangle;connectable=0;fillColor=none;top=0;left=0;bottom=0;right=0;editable=1;overflow=hidden;whiteSpace=wrap;html=1;" vertex="1" parent="UQmTX6FbrtQx3RFLPW82-83">
          <mxGeometry width="35.42107833059214" height="30" as="geometry">
            <mxRectangle width="35.42107833059214" height="30" as="alternateBounds" />
          </mxGeometry>
        </mxCell>
        <mxCell id="UQmTX6FbrtQx3RFLPW82-85" value="Apellido" style="shape=partialRectangle;connectable=0;fillColor=none;top=0;left=0;bottom=0;right=0;align=left;spacingLeft=6;overflow=hidden;whiteSpace=wrap;html=1;" vertex="1" parent="UQmTX6FbrtQx3RFLPW82-83">
          <mxGeometry x="35.42107833059214" width="144.57892166940786" height="30" as="geometry">
            <mxRectangle width="144.57892166940786" height="30" as="alternateBounds" />
          </mxGeometry>
        </mxCell>
        <mxCell id="UQmTX6FbrtQx3RFLPW82-86" value="" style="shape=tableRow;horizontal=0;startSize=0;swimlaneHead=0;swimlaneBody=0;fillColor=none;collapsible=0;dropTarget=0;points=[[0,0.5],[1,0.5]];portConstraint=eastwest;top=0;left=0;right=0;bottom=0;" vertex="1" parent="UQmTX6FbrtQx3RFLPW82-73">
          <mxGeometry y="180" width="180" height="30" as="geometry" />
        </mxCell>
        <mxCell id="UQmTX6FbrtQx3RFLPW82-87" value="nn" style="shape=partialRectangle;connectable=0;fillColor=none;top=0;left=0;bottom=0;right=0;editable=1;overflow=hidden;whiteSpace=wrap;html=1;" vertex="1" parent="UQmTX6FbrtQx3RFLPW82-86">
          <mxGeometry width="35.42107833059214" height="30" as="geometry">
            <mxRectangle width="35.42107833059214" height="30" as="alternateBounds" />
          </mxGeometry>
        </mxCell>
        <mxCell id="UQmTX6FbrtQx3RFLPW82-88" value="FechaNacimiento" style="shape=partialRectangle;connectable=0;fillColor=none;top=0;left=0;bottom=0;right=0;align=left;spacingLeft=6;overflow=hidden;whiteSpace=wrap;html=1;" vertex="1" parent="UQmTX6FbrtQx3RFLPW82-86">
          <mxGeometry x="35.42107833059214" width="144.57892166940786" height="30" as="geometry">
            <mxRectangle width="144.57892166940786" height="30" as="alternateBounds" />
          </mxGeometry>
        </mxCell>
        <mxCell id="UQmTX6FbrtQx3RFLPW82-92" value="" style="edgeStyle=entityRelationEdgeStyle;fontSize=12;html=1;endArrow=ERoneToMany;startArrow=ERmandOne;rounded=0;" edge="1" parent="1" source="UQmTX6FbrtQx3RFLPW82-74" target="UQmTX6FbrtQx3RFLPW82-5">
          <mxGeometry width="100" height="100" relative="1" as="geometry">
            <mxPoint x="148" y="563" as="sourcePoint" />
            <mxPoint x="248" y="463" as="targetPoint" />
          </mxGeometry>
        </mxCell>
        <mxCell id="UQmTX6FbrtQx3RFLPW82-96" value="Servidor" style="shape=table;startSize=30;container=1;collapsible=1;childLayout=tableLayout;fixedRows=1;rowLines=0;fontStyle=1;align=center;resizeLast=1;html=1;" vertex="1" parent="1">
          <mxGeometry x="796" y="424" width="180" height="180" as="geometry" />
        </mxCell>
        <mxCell id="UQmTX6FbrtQx3RFLPW82-97" value="" style="shape=tableRow;horizontal=0;startSize=0;swimlaneHead=0;swimlaneBody=0;fillColor=none;collapsible=0;dropTarget=0;points=[[0,0.5],[1,0.5]];portConstraint=eastwest;top=0;left=0;right=0;bottom=1;" vertex="1" parent="UQmTX6FbrtQx3RFLPW82-96">
          <mxGeometry y="30" width="180" height="30" as="geometry" />
        </mxCell>
        <mxCell id="UQmTX6FbrtQx3RFLPW82-98" value="PK" style="shape=partialRectangle;connectable=0;fillColor=none;top=0;left=0;bottom=0;right=0;fontStyle=1;overflow=hidden;whiteSpace=wrap;html=1;" vertex="1" parent="UQmTX6FbrtQx3RFLPW82-97">
          <mxGeometry width="30" height="30" as="geometry">
            <mxRectangle width="30" height="30" as="alternateBounds" />
          </mxGeometry>
        </mxCell>
        <mxCell id="UQmTX6FbrtQx3RFLPW82-99" value="IdServidor" style="shape=partialRectangle;connectable=0;fillColor=none;top=0;left=0;bottom=0;right=0;align=left;spacingLeft=6;fontStyle=5;overflow=hidden;whiteSpace=wrap;html=1;" vertex="1" parent="UQmTX6FbrtQx3RFLPW82-97">
          <mxGeometry x="30" width="150" height="30" as="geometry">
            <mxRectangle width="150" height="30" as="alternateBounds" />
          </mxGeometry>
        </mxCell>
        <mxCell id="UQmTX6FbrtQx3RFLPW82-100" value="" style="shape=tableRow;horizontal=0;startSize=0;swimlaneHead=0;swimlaneBody=0;fillColor=none;collapsible=0;dropTarget=0;points=[[0,0.5],[1,0.5]];portConstraint=eastwest;top=0;left=0;right=0;bottom=0;" vertex="1" parent="UQmTX6FbrtQx3RFLPW82-96">
          <mxGeometry y="60" width="180" height="30" as="geometry" />
        </mxCell>
        <mxCell id="UQmTX6FbrtQx3RFLPW82-101" value="" style="shape=partialRectangle;connectable=0;fillColor=none;top=0;left=0;bottom=0;right=0;editable=1;overflow=hidden;whiteSpace=wrap;html=1;" vertex="1" parent="UQmTX6FbrtQx3RFLPW82-100">
          <mxGeometry width="30" height="30" as="geometry">
            <mxRectangle width="30" height="30" as="alternateBounds" />
          </mxGeometry>
        </mxCell>
        <mxCell id="UQmTX6FbrtQx3RFLPW82-102" value="IP" style="shape=partialRectangle;connectable=0;fillColor=none;top=0;left=0;bottom=0;right=0;align=left;spacingLeft=6;overflow=hidden;whiteSpace=wrap;html=1;" vertex="1" parent="UQmTX6FbrtQx3RFLPW82-100">
          <mxGeometry x="30" width="150" height="30" as="geometry">
            <mxRectangle width="150" height="30" as="alternateBounds" />
          </mxGeometry>
        </mxCell>
        <mxCell id="UQmTX6FbrtQx3RFLPW82-103" value="" style="shape=tableRow;horizontal=0;startSize=0;swimlaneHead=0;swimlaneBody=0;fillColor=none;collapsible=0;dropTarget=0;points=[[0,0.5],[1,0.5]];portConstraint=eastwest;top=0;left=0;right=0;bottom=0;" vertex="1" parent="UQmTX6FbrtQx3RFLPW82-96">
          <mxGeometry y="90" width="180" height="30" as="geometry" />
        </mxCell>
        <mxCell id="UQmTX6FbrtQx3RFLPW82-104" value="" style="shape=partialRectangle;connectable=0;fillColor=none;top=0;left=0;bottom=0;right=0;editable=1;overflow=hidden;whiteSpace=wrap;html=1;" vertex="1" parent="UQmTX6FbrtQx3RFLPW82-103">
          <mxGeometry width="30" height="30" as="geometry">
            <mxRectangle width="30" height="30" as="alternateBounds" />
          </mxGeometry>
        </mxCell>
        <mxCell id="UQmTX6FbrtQx3RFLPW82-105" value="Nombre" style="shape=partialRectangle;connectable=0;fillColor=none;top=0;left=0;bottom=0;right=0;align=left;spacingLeft=6;overflow=hidden;whiteSpace=wrap;html=1;" vertex="1" parent="UQmTX6FbrtQx3RFLPW82-103">
          <mxGeometry x="30" width="150" height="30" as="geometry">
            <mxRectangle width="150" height="30" as="alternateBounds" />
          </mxGeometry>
        </mxCell>
        <mxCell id="UQmTX6FbrtQx3RFLPW82-106" value="" style="shape=tableRow;horizontal=0;startSize=0;swimlaneHead=0;swimlaneBody=0;fillColor=none;collapsible=0;dropTarget=0;points=[[0,0.5],[1,0.5]];portConstraint=eastwest;top=0;left=0;right=0;bottom=0;" vertex="1" parent="UQmTX6FbrtQx3RFLPW82-96">
          <mxGeometry y="120" width="180" height="30" as="geometry" />
        </mxCell>
        <mxCell id="UQmTX6FbrtQx3RFLPW82-107" value="" style="shape=partialRectangle;connectable=0;fillColor=none;top=0;left=0;bottom=0;right=0;editable=1;overflow=hidden;whiteSpace=wrap;html=1;" vertex="1" parent="UQmTX6FbrtQx3RFLPW82-106">
          <mxGeometry width="30" height="30" as="geometry">
            <mxRectangle width="30" height="30" as="alternateBounds" />
          </mxGeometry>
        </mxCell>
        <mxCell id="UQmTX6FbrtQx3RFLPW82-108" value="DiscoRigido" style="shape=partialRectangle;connectable=0;fillColor=none;top=0;left=0;bottom=0;right=0;align=left;spacingLeft=6;overflow=hidden;whiteSpace=wrap;html=1;" vertex="1" parent="UQmTX6FbrtQx3RFLPW82-106">
          <mxGeometry x="30" width="150" height="30" as="geometry">
            <mxRectangle width="150" height="30" as="alternateBounds" />
          </mxGeometry>
        </mxCell>
        <mxCell id="UQmTX6FbrtQx3RFLPW82-109" value="" style="shape=tableRow;horizontal=0;startSize=0;swimlaneHead=0;swimlaneBody=0;fillColor=none;collapsible=0;dropTarget=0;points=[[0,0.5],[1,0.5]];portConstraint=eastwest;top=0;left=0;right=0;bottom=0;" vertex="1" parent="UQmTX6FbrtQx3RFLPW82-96">
          <mxGeometry y="150" width="180" height="30" as="geometry" />
        </mxCell>
        <mxCell id="UQmTX6FbrtQx3RFLPW82-110" value="" style="shape=partialRectangle;connectable=0;fillColor=none;top=0;left=0;bottom=0;right=0;editable=1;overflow=hidden;whiteSpace=wrap;html=1;" vertex="1" parent="UQmTX6FbrtQx3RFLPW82-109">
          <mxGeometry width="30" height="30" as="geometry">
            <mxRectangle width="30" height="30" as="alternateBounds" />
          </mxGeometry>
        </mxCell>
        <mxCell id="UQmTX6FbrtQx3RFLPW82-111" value="Oficina" style="shape=partialRectangle;connectable=0;fillColor=none;top=0;left=0;bottom=0;right=0;align=left;spacingLeft=6;overflow=hidden;whiteSpace=wrap;html=1;" vertex="1" parent="UQmTX6FbrtQx3RFLPW82-109">
          <mxGeometry x="30" width="150" height="30" as="geometry">
            <mxRectangle width="150" height="30" as="alternateBounds" />
          </mxGeometry>
        </mxCell>
      </root>
    </mxGraphModel>
  </diagram>
</mxfile>
